<mxfile host="65bd71144e">
    <diagram id="EjNSbUNWOH8tGp1hyrma" name="Page-1">
        <mxGraphModel dx="936" dy="1671" grid="1" gridSize="10" guides="1" tooltips="1" connect="1" arrows="1" fold="1" page="1" pageScale="1" pageWidth="850" pageHeight="1100" math="0" shadow="0">
            <root>
                <mxCell id="0"/>
                <mxCell id="1" parent="0"/>
                <mxCell id="3" value="LOG" style="swimlane;whiteSpace=wrap;html=1;" vertex="1" parent="1">
                    <mxGeometry x="590" y="320" width="200" height="200" as="geometry"/>
                </mxCell>
                <mxCell id="5" value="Calendar" style="text;html=1;align=center;verticalAlign=middle;resizable=0;points=[];autosize=1;strokeColor=none;fillColor=none;" vertex="1" parent="3">
                    <mxGeometry x="60" y="50" width="70" height="30" as="geometry"/>
                </mxCell>
                <mxCell id="19" value="Feed" style="text;html=1;align=center;verticalAlign=middle;resizable=0;points=[];autosize=1;strokeColor=none;fillColor=none;" vertex="1" parent="3">
                    <mxGeometry x="70" y="100" width="50" height="30" as="geometry"/>
                </mxCell>
                <mxCell id="2" value="Landing Page" style="swimlane;whiteSpace=wrap;html=1;" vertex="1" parent="1">
                    <mxGeometry x="330" y="10" width="255" height="200" as="geometry"/>
                </mxCell>
                <mxCell id="23" value="&lt;ul&gt;&lt;li&gt;Today (Load Today's Workouts)&lt;/li&gt;&lt;li&gt;Calendar (Look at Month/List)&lt;/li&gt;&lt;li&gt;Create Workout (Load Workout Planner)&lt;/li&gt;&lt;li&gt;Analyse&amp;nbsp;&lt;/li&gt;&lt;li&gt;Log (Single Day View)&lt;/li&gt;&lt;li&gt;Workout Bank (Load List of Workouts)&lt;/li&gt;&lt;/ul&gt;" style="text;html=1;align=left;verticalAlign=middle;resizable=0;points=[];autosize=1;strokeColor=none;fillColor=none;" vertex="1" parent="2">
                    <mxGeometry x="-25" y="20" width="280" height="160" as="geometry"/>
                </mxCell>
                <mxCell id="4" value="PLAN" style="swimlane;whiteSpace=wrap;html=1;" vertex="1" parent="1">
                    <mxGeometry x="320" y="260" width="200" height="360" as="geometry"/>
                </mxCell>
                <mxCell id="6" value="Calendar" style="text;html=1;align=center;verticalAlign=middle;resizable=0;points=[];autosize=1;strokeColor=none;fillColor=none;" vertex="1" parent="4">
                    <mxGeometry x="65" y="50" width="70" height="30" as="geometry"/>
                </mxCell>
                <mxCell id="20" value="Select Workout" style="swimlane;whiteSpace=wrap;html=1;" vertex="1" parent="4">
                    <mxGeometry y="160" width="200" height="200" as="geometry"/>
                </mxCell>
                <mxCell id="10" value="&lt;ul&gt;&lt;li&gt;&lt;span style=&quot;background-color: initial;&quot;&gt;Create Workouts&lt;/span&gt;&lt;/li&gt;&lt;li&gt;&lt;span style=&quot;background-color: initial;&quot;&gt;Place Workout on Days&lt;/span&gt;&lt;br&gt;&lt;/li&gt;&lt;li&gt;Log Workouts&lt;/li&gt;&lt;li&gt;Analyse Data&lt;/li&gt;&lt;/ul&gt;" style="text;strokeColor=#3A5431;fillColor=#6d8764;html=1;whiteSpace=wrap;verticalAlign=middle;overflow=hidden;fontColor=#ffffff;" vertex="1" parent="1">
                    <mxGeometry x="10" y="-170" width="215" height="110" as="geometry"/>
                </mxCell>
                <mxCell id="15" value="Create Workout" style="swimlane;whiteSpace=wrap;html=1;" vertex="1" parent="1">
                    <mxGeometry x="40" y="250" width="200" height="200" as="geometry"/>
                </mxCell>
                <mxCell id="17" value="&lt;ul&gt;&lt;li&gt;Date&lt;/li&gt;&lt;li&gt;Type&lt;/li&gt;&lt;li&gt;Distance&lt;/li&gt;&lt;li&gt;Time&lt;/li&gt;&lt;/ul&gt;" style="text;strokeColor=none;fillColor=none;html=1;whiteSpace=wrap;verticalAlign=middle;overflow=hidden;" vertex="1" parent="15">
                    <mxGeometry x="10" y="50" width="100" height="120" as="geometry"/>
                </mxCell>
                <mxCell id="21" value="Filter by Type/&lt;br&gt;List by Type" style="text;html=1;align=center;verticalAlign=middle;resizable=0;points=[];autosize=1;strokeColor=none;fillColor=none;" vertex="1" parent="1">
                    <mxGeometry x="330" y="480" width="100" height="40" as="geometry"/>
                </mxCell>
                <mxCell id="22" value="Data Analysis" style="swimlane;whiteSpace=wrap;html=1;" vertex="1" parent="1">
                    <mxGeometry x="40" y="510" width="200" height="200" as="geometry"/>
                </mxCell>
            </root>
        </mxGraphModel>
    </diagram>
</mxfile>